<?xml version="1.0" encoding="UTF-8"?>
<svg id="Layer_1" xmlns="http://www.w3.org/2000/svg" version="1.1" viewBox="0 0 234.65 233.64">
  <!-- Generator: Adobe Illustrator 30.2.1, SVG Export Plug-In . SVG Version: 2.1.1 Build 1)  -->
  <defs>
    <style>
      .st0 {
        isolation: isolate;
      }

      .st1 {
        fill: #51b181;
      }
    </style>
  </defs>
  <g class="st0">
    <g id="Layer_11" data-name="Layer_1">
      <path class="st1" d="M205.77,38.22s-74.64-4.92-88.51,42.37c0,0-5.13,20.13,3.36,37.15-4.74,6.26-8.1,13.53-10.45,21-1.23-2.49-2.51-4.76-3.84-6.81.5-9.99.37-48.61-31.18-55.62-36.31-8.08-50.3-.5-50.3-.5,0,0-1.76,46.65,29.88,64.17,18.47,10.22,32.89,6.58,41.72,1.77,4.12,7.28,7.77,17.92,8.49,33.08-.03,3,.01,5.65.12,7.8-.03,1.28-.07,2.58-.13,3.92-.06,1.31.27,2.54.87,3.62.91,2.74,3.49,4.66,6.43,4.66.23,0,.48,0,.71-.04,3.73-.39,6.46-3.73,6.07-7.47,0-.1-.2-2.09-.32-5.35.03-2.24-.01-4.37-.1-6.47.1-12.81,1.92-33.25,11.32-47.36,8.72,2.15,40.69,7.64,61.76-20.55,24.59-32.91,14.12-69.35,14.12-69.35h-.01Z"/>
    </g>
  </g>
</svg>