<?xml version="1.0" encoding="UTF-8"?>
<svg id="Layer_1" xmlns="http://www.w3.org/2000/svg" version="1.1" viewBox="0 0 234.65 233.64">
  <!-- Generator: Adobe Illustrator 30.2.1, SVG Export Plug-In . SVG Version: 2.1.1 Build 1)  -->
  <defs>
    <style>
      .st0 {
        fill: #51b181;
      }
    </style>
  </defs>
  <path class="st0" d="M211.57,33.14s-79.49-5.24-94.25,45.11c0,0-5.46,21.44,3.58,39.56-5.06,6.67-8.63,14.41-11.13,22.36-1.3-2.66-2.68-5.08-4.09-7.25.54-10.64.4-51.76-33.21-59.23-38.67-8.59-53.57-.54-53.57-.54,0,0-1.88,49.68,31.82,68.34,19.67,10.89,35.03,7.01,44.42,1.89,4.39,7.76,8.28,19.08,9.05,35.23-.03,3.19.02,6.01.12,8.31-.03,1.36-.07,2.75-.14,4.17-.07,1.4.28,2.71.92,3.85.97,2.92,3.72,4.96,6.85,4.96.25,0,.5-.01.76-.04,3.98-.41,6.87-3.98,6.46-7.96-.01-.1-.21-2.23-.34-5.7.03-2.38-.02-4.66-.1-6.89.1-13.63,2.04-35.42,12.05-50.44,9.29,2.29,43.34,8.14,65.77-21.88,26.18-35.04,15.04-73.85,15.04-73.85Z"/>
</svg>